<svg
        xmlns="http://www.w3.org/2000/svg"
        xmlns:xlink="http://www.w3.org/1999/xlink"
        width="35px" height="40px">
    <path fill-rule="evenodd"  fill="rgb(36, 195, 118)"
          d="M34.438,37.288 L34.438,31.316 L34.635,31.316 C34.635,31.316 34.689,30.519 34.523,30.146 C34.356,29.774 33.856,29.799 33.856,29.799 C33.856,29.799 33.798,29.401 33.437,28.952 C33.297,28.776 33.068,28.687 32.860,28.633 L32.860,26.281 L33.326,26.281 L33.326,25.297 L33.075,25.297 C33.365,25.028 34.222,24.110 34.001,22.868 C33.721,21.270 31.468,20.513 30.909,18.893 C30.691,18.257 30.557,17.735 30.477,17.331 L30.477,14.757 L30.996,14.757 L30.996,14.593 L30.477,14.593 L30.477,14.101 L30.293,14.101 L30.293,14.593 L29.774,14.593 L29.774,14.757 L30.295,14.757 L30.295,16.900 C30.230,17.328 30.092,18.002 29.784,18.893 C29.226,20.513 26.971,21.270 26.692,22.868 C26.472,24.110 27.331,25.028 27.617,25.297 L27.365,25.297 L27.365,26.281 L27.718,26.281 L27.718,28.627 C26.913,28.756 26.852,29.747 26.852,29.747 C26.852,29.747 26.616,29.728 26.324,29.882 L26.324,27.607 L26.337,27.607 C26.337,27.607 27.350,26.754 27.143,25.523 C26.945,24.326 25.484,23.694 24.870,22.599 C24.883,22.530 24.915,22.343 24.947,21.995 C24.989,21.549 24.614,21.136 24.614,21.136 C24.614,21.136 24.573,20.800 24.696,20.352 C24.823,19.905 24.323,19.456 24.363,19.307 C24.406,19.159 23.989,18.450 24.030,18.225 C24.062,18.052 23.974,17.431 23.930,17.141 L24.158,17.141 L24.158,16.806 L23.214,16.806 L20.981,8.542 L20.981,7.734 L21.136,7.734 L21.136,6.151 L21.262,6.151 L21.262,5.608 C21.455,5.390 21.878,4.805 21.609,4.145 C21.395,3.622 20.237,2.504 20.082,2.143 C19.978,1.893 19.949,1.694 19.939,1.598 L19.939,0.588 L20.345,0.588 L20.345,0.461 L19.939,0.461 L19.939,0.074 L19.794,0.074 L19.794,0.461 L19.388,0.461 L19.388,0.588 L19.794,0.588 L19.794,1.662 C19.781,1.771 19.743,1.940 19.656,2.143 C19.508,2.504 18.344,3.622 18.131,4.145 C17.861,4.805 18.288,5.390 18.479,5.608 L18.479,6.151 L18.588,6.151 L18.588,7.734 L18.760,7.734 L18.760,8.543 L16.526,16.807 L15.443,16.807 L15.443,17.142 L15.881,17.142 C15.724,17.442 15.920,18.110 15.777,18.337 C15.611,18.598 15.693,19.307 15.444,19.645 C15.193,19.980 15.319,20.801 15.319,20.801 C15.319,20.801 15.151,20.912 15.069,21.137 C14.993,21.343 15.161,21.926 15.028,22.396 C14.243,21.718 13.211,21.114 12.856,20.206 C12.588,19.520 12.446,18.979 12.374,18.599 L12.371,18.599 L12.371,16.780 L12.871,16.780 L12.871,16.630 L12.371,16.630 L12.371,16.178 L12.203,16.178 L12.203,16.630 L11.759,16.630 L11.759,16.780 L12.203,16.780 L12.203,18.613 C12.128,18.991 11.990,19.526 11.725,20.206 C11.383,21.080 10.414,21.671 9.643,22.319 C8.778,21.578 7.702,20.901 7.322,19.898 C7.006,19.070 6.846,18.425 6.767,17.983 L6.767,15.825 L7.239,15.825 L7.239,15.677 L6.767,15.677 L6.767,15.228 L6.599,15.228 L6.599,15.677 L6.128,15.677 L6.128,15.825 L6.599,15.825 L6.599,17.983 C6.518,18.425 6.360,19.071 6.044,19.898 C5.409,21.565 2.853,22.345 2.533,23.985 C2.280,25.283 3.298,26.240 3.605,26.496 L3.605,35.014 C3.249,34.719 2.908,34.414 2.759,34.021 C2.599,33.593 2.513,33.256 2.467,33.012 L2.467,32.188 L2.828,32.188 L2.828,32.074 L2.467,32.074 L2.467,31.731 L2.338,31.731 L2.338,32.074 L1.977,32.074 L1.977,32.188 L2.338,32.188 L2.338,33.078 C2.290,33.317 2.206,33.630 2.061,34.021 C1.711,34.944 0.313,35.379 0.139,36.291 C-0.012,37.071 0.651,37.628 0.757,37.712 L0.757,39.925 L34.883,39.925 L34.883,37.288 L34.438,37.288 L34.438,37.288 Z"/>
</svg>