<svg
        xmlns="http://www.w3.org/2000/svg"
        xmlns:xlink="http://www.w3.org/1999/xlink"
        width="30px" height="35px">
    <path fill-rule="evenodd"  fill="rgb(36, 195, 118)"
          d="M25.634,26.179 L5.701,26.179 C2.558,26.179 -0.000,23.627 -0.000,20.490 C-0.000,17.354 2.558,14.801 5.701,14.801 L9.987,14.801 C11.300,14.801 12.368,15.867 12.368,17.177 C12.368,18.488 11.300,19.554 9.987,19.554 L4.751,19.554 L4.751,21.836 L9.987,21.836 C12.159,21.836 13.990,20.348 14.508,18.340 L24.442,18.340 C26.607,18.340 28.571,17.467 30.000,16.056 L30.000,18.666 C30.000,21.881 28.243,24.687 25.634,26.179 ZM24.442,16.057 L14.518,16.057 C14.014,14.028 12.174,12.519 9.987,12.519 L5.701,12.519 C4.285,12.519 2.953,12.889 1.798,13.537 L1.798,8.655 C1.798,3.875 5.682,-0.000 10.472,-0.000 L21.326,-0.000 C26.117,-0.000 30.000,3.875 30.000,8.655 L30.000,11.268 C29.602,13.973 27.262,16.057 24.442,16.057 ZM26.297,28.462 L26.297,35.000 L5.486,35.000 L5.486,28.459 C5.558,28.461 5.629,28.462 5.701,28.462 L26.297,28.462 ZM12.923,32.871 L18.669,32.871 L18.669,30.588 L12.923,30.588 L12.923,32.871 Z"/>
</svg>