<svg
        xmlns="http://www.w3.org/2000/svg"
        xmlns:xlink="http://www.w3.org/1999/xlink"
        width="34px" height="32px">
    <path fill-rule="evenodd"  fill="rgb(36, 195, 118)"
          d="M33.378,23.102 C33.187,23.275 32.961,23.409 32.709,23.492 C32.515,23.555 32.308,23.593 32.091,23.593 L32.041,23.593 L20.709,23.593 C19.655,23.593 18.800,22.754 18.800,21.721 L18.800,19.647 L18.800,19.067 L18.800,18.487 L18.800,17.555 C18.800,16.522 19.655,15.684 20.709,15.684 L29.277,15.684 L31.411,15.684 L32.003,15.684 L32.041,15.684 L32.091,15.684 C32.308,15.684 32.515,15.721 32.709,15.784 C32.961,15.871 33.187,16.002 33.378,16.174 C33.759,16.514 34.000,17.009 34.000,17.555 L34.000,21.721 C34.000,22.268 33.759,22.762 33.378,23.102 ZM24.695,19.389 C24.695,18.873 24.268,18.453 23.741,18.453 L23.267,18.453 L23.107,18.453 C22.886,18.453 22.683,18.532 22.519,18.656 C22.294,18.824 22.152,19.090 22.152,19.389 L22.152,20.011 C22.152,20.527 22.580,20.946 23.107,20.946 L23.741,20.946 C24.268,20.946 24.695,20.527 24.695,20.011 L24.695,19.389 ZM31.041,14.385 L30.449,14.385 L20.705,14.385 C20.576,14.385 20.446,14.392 20.320,14.407 C19.564,14.493 18.888,14.838 18.384,15.347 C17.815,15.919 17.464,16.702 17.464,17.563 L17.464,18.850 L17.464,19.430 L17.464,20.011 L17.464,21.725 C17.464,23.480 18.919,24.906 20.709,24.906 L32.037,24.906 L32.037,30.128 C32.037,31.161 31.182,32.000 30.128,32.000 L1.909,32.000 C0.855,32.000 -0.000,31.161 -0.000,30.128 L-0.000,11.634 L-0.000,9.500 L-0.000,9.275 C-0.000,9.107 0.027,8.942 0.069,8.785 C0.137,8.534 0.260,8.306 0.420,8.107 C0.771,7.677 1.310,7.403 1.913,7.403 L3.051,7.403 L3.390,7.403 L5.223,7.403 L7.399,7.403 L23.997,7.403 L28.513,7.403 L29.105,7.403 L29.697,7.403 L30.132,7.403 C31.186,7.403 32.041,8.242 32.037,9.275 L32.037,14.385 L31.633,14.385 L31.041,14.385 ZM12.294,6.093 L22.019,3.492 L25.203,2.639 C25.371,2.594 25.539,2.571 25.707,2.571 C26.547,2.571 27.318,3.118 27.547,3.953 L28.143,6.093 L23.332,6.093 L12.294,6.093 ZM6.090,6.093 L18.224,0.198 C19.167,-0.262 20.312,0.120 20.782,1.044 L21.500,2.467 L7.945,6.093 L6.090,6.093 Z"/>
</svg>