<svg
        xmlns="http://www.w3.org/2000/svg"
        xmlns:xlink="http://www.w3.org/1999/xlink"
        width="29px" height="37px">
    <path fill-rule="evenodd"  fill="rgb(36, 195, 118)"
          d="M26.352,14.945 C26.994,16.094 26.749,17.001 25.623,17.675 C24.497,18.347 23.927,19.339 23.909,20.651 C23.888,21.968 23.225,22.639 21.914,22.654 C20.601,22.669 19.612,23.247 18.938,24.375 C18.267,25.506 17.361,25.749 16.218,25.102 C15.075,24.468 13.928,24.468 12.785,25.102 C11.642,25.749 10.737,25.506 10.065,24.375 C9.391,23.247 8.402,22.669 7.089,22.654 C5.781,22.639 5.115,21.968 5.097,20.651 C5.077,19.339 4.506,18.347 3.380,17.675 C2.252,17.002 2.006,16.094 2.651,14.945 C3.293,13.798 3.293,12.653 2.651,11.504 C2.006,10.357 2.254,9.453 3.380,8.778 C4.506,8.100 5.076,7.111 5.097,5.793 C5.115,4.481 5.781,3.811 7.089,3.796 C8.401,3.779 9.391,3.204 10.063,2.076 C10.735,0.945 11.640,0.701 12.785,1.344 C13.928,1.984 15.075,1.984 16.218,1.344 C17.361,0.700 18.266,0.945 18.938,2.076 C19.612,3.203 20.601,3.777 21.914,3.796 C23.225,3.811 23.888,4.481 23.909,5.793 C23.926,7.111 24.497,8.102 25.623,8.778 C26.751,9.453 26.994,10.358 26.352,11.504 C25.713,12.653 25.713,13.798 26.352,14.945 ZM14.504,6.027 C10.537,6.027 7.323,9.249 7.323,13.222 C7.323,17.199 10.537,20.422 14.504,20.422 C18.469,20.422 21.682,17.199 21.682,13.222 C21.682,9.249 18.469,6.027 14.504,6.027 ZM17.511,17.865 L14.502,16.279 L11.492,17.865 L12.065,14.504 L9.634,12.128 L12.997,11.635 L14.502,8.586 L16.003,11.635 L19.369,12.128 L16.938,14.504 L17.511,17.865 ZM6.974,23.710 C10.156,23.779 9.130,26.393 11.709,26.456 C11.709,26.387 6.732,36.798 6.732,36.798 L4.342,33.194 L0.022,33.681 L5.410,23.066 C5.410,23.066 5.595,23.710 6.974,23.710 ZM19.486,25.635 C20.386,24.874 19.585,23.894 23.522,23.481 L28.978,33.680 L24.728,33.124 L23.232,37.005 L17.156,26.525 C17.156,26.525 18.451,26.742 19.486,25.635 Z"/>
</svg>